<svg xmlns="http://www.w3.org/2000/svg" viewBox="0 0 108 108">
  <rect width="108" height="108" rx="24" fill="#0B1F3A"/>
  <circle cx="54" cy="54" r="42" fill="#FF7043"/>
  <circle cx="54" cy="54" r="34" fill="#0B1F3A"/>
  <path fill="#FFFFFF" d="M27 36h8v12h-8zM37 32h8v20h-8zM45 41h18v3H45zM63 32h8v20h-8zM73 36h8v12h-8z"/>
  <path d="M29 65c5-5 10-5 15 0s10 5 15 0s10-5 20 0" fill="none" stroke="#FFFFFF" stroke-width="5" stroke-linecap="round" stroke-linejoin="round"/>
  <path d="M31 76c5-4 10-4 15 0s10 4 15 0s10-4 16 0" fill="none" stroke="#FF7043" stroke-width="4" stroke-linecap="round" stroke-linejoin="round"/>
</svg>
